<svg width="29" height="22" viewBox="0 0 29 22" fill="none" xmlns="http://www.w3.org/2000/svg">
<path d="M26 4H24V3C24 2.20435 23.6839 1.44129 23.1213 0.87868C22.5587 0.316071 21.7956 0 21 0H3C2.20435 0 1.44129 0.316071 0.87868 0.87868C0.316071 1.44129 0 2.20435 0 3V15C0 15.7956 0.316071 16.5587 0.87868 17.1213C1.44129 17.6839 2.20435 18 3 18H17V19C17 19.7956 17.3161 20.5587 17.8787 21.1213C18.4413 21.6839 19.2044 22 20 22H26C26.7956 22 27.5587 21.6839 28.1213 21.1213C28.6839 20.5587 29 19.7956 29 19V7C29 6.20435 28.6839 5.44129 28.1213 4.87868C27.5587 4.31607 26.7956 4 26 4ZM3 16C2.73478 16 2.48043 15.8946 2.29289 15.7071C2.10536 15.5196 2 15.2652 2 15V3C2 2.73478 2.10536 2.48043 2.29289 2.29289C2.48043 2.10536 2.73478 2 3 2H21C21.2652 2 21.5196 2.10536 21.7071 2.29289C21.8946 2.48043 22 2.73478 22 3V4H20C19.2044 4 18.4413 4.31607 17.8787 4.87868C17.3161 5.44129 17 6.20435 17 7V16H3ZM27 19C27 19.2652 26.8946 19.5196 26.7071 19.7071C26.5196 19.8946 26.2652 20 26 20H20C19.7348 20 19.4804 19.8946 19.2929 19.7071C19.1054 19.5196 19 19.2652 19 19V7C19 6.73478 19.1054 6.48043 19.2929 6.29289C19.4804 6.10536 19.7348 6 20 6H26C26.2652 6 26.5196 6.10536 26.7071 6.29289C26.8946 6.48043 27 6.73478 27 7V19ZM15 21C15 21.2652 14.8946 21.5196 14.7071 21.7071C14.5196 21.8946 14.2652 22 14 22H9C8.73478 22 8.48043 21.8946 8.29289 21.7071C8.10536 21.5196 8 21.2652 8 21C8 20.7348 8.10536 20.4804 8.29289 20.2929C8.48043 20.1054 8.73478 20 9 20H14C14.2652 20 14.5196 20.1054 14.7071 20.2929C14.8946 20.4804 15 20.7348 15 21ZM25 9C25 9.26522 24.8946 9.51957 24.7071 9.70711C24.5196 9.89464 24.2652 10 24 10H22C21.7348 10 21.4804 9.89464 21.2929 9.70711C21.1054 9.51957 21 9.26522 21 9C21 8.73478 21.1054 8.48043 21.2929 8.29289C21.4804 8.10536 21.7348 8 22 8H24C24.2652 8 24.5196 8.10536 24.7071 8.29289C24.8946 8.48043 25 8.73478 25 9Z" fill="#D072D0"/>
</svg>
